<svg xmlns="http://www.w3.org/2000/svg" width="84" height="33"><path fill="#FFF" d="M84 32.202V33h-7.36c-4.936 0-6.053-1.359-10.94-8.487-2.698-3.841-4.7-6.517-4.7-6.517l6.425-7.824s8.008-9.188-.28-9.374V0H82.51v.798c-3.12 0-6.378.093-16.432 13.077 10.891 14.672 11.357 15.281 11.357 15.281A7.578 7.578 0 0084 32.203m-27.016-25.5v19.922c0 3.843-.367 4.922 2.016 5.577V33h-9.532v-.798c1.238-.468 1.1-1.738 1.1-5.577V17.67h-11.09v8.954c0 3.843-.183 5.112 1.1 5.577V33H31v-.798c2.428-.655 2.062-1.738 2.062-5.577V6.703c0-3.609.137-5.484-2.062-5.905V0h9.578v.798c-1.283.42-1.1 2.296-1.1 5.905v10.032h11.09V6.703c0-3.609.184-5.484-1.1-5.905V0H59v.798c-2.154.42-2.016 2.296-2.016 5.905M7.716 21.364l-.114-3.112a.252.252 0 00-.504 0c-.043.754-.168 3.085-.168 3.116-.012.844-.291 10.846-6.93 10.846V33h14v-.786c-6.117 0-6.28-10.032-6.284-10.85m21.146-6.446a.214.214 0 00-.28.116l-1.579 3.069c-1.369 2.662-2.801 3.785-4.38.72L13.67 0H2v.787a5.672 5.672 0 015.233 3.194L20.993 33h.787l.74-1.842 6.465-15.965a.214.214 0 00-.117-.276"/></svg>